/* XPM */
static char *_aec3ff4bcef4578965bbae169589a06LhTYu2Fi5q8aYGi9[] = {
/* columns rows colors chars-per-pixel */
"24 24 149 2 ",
"   c #AB1A17",
".  c #A41E1D",
"X  c #B51C1D",
"o  c #AD221F",
"O  c #B1211E",
"+  c #BB1F20",
"@  c #9F2522",
"#  c #9F2824",
"$  c #922A2D",
"%  c #9A2B2D",
"&  c #962831",
"*  c #A32525",
"=  c #AB2424",
"-  c #A32824",
";  c #A1252C",
":  c #A82628",
">  c #A2292C",
",  c #B32423",
"<  c #C53735",
"1  c #C93738",
"2  c #D23433",
"3  c #95494B",
"4  c #A74444",
"5  c #AC4246",
"6  c #B04441",
"7  c #BB4043",
"8  c #B34248",
"9  c #B95C5D",
"0  c #BC5C60",
"q  c #DA4F52",
"w  c #CA5450",
"e  c #C8555A",
"r  c #C0595A",
"t  c #D65152",
"y  c #E64944",
"u  c #DA6D72",
"i  c #CF7374",
"p  c #C87678",
"a  c #E27271",
"s  c #FB7977",
"d  c #D78D8A",
"f  c #D88E8B",
"g  c #D69092",
"h  c #E68483",
"j  c #E18C8E",
"k  c #F98182",
"l  c #E38D90",
"z  c #FF9295",
"x  c #FF9897",
"c  c #FF9A9A",
"v  c #E6A39D",
"b  c #FF9EA0",
"n  c #E4A3A7",
"m  c #EDA6A5",
"M  c #EFA7AA",
"N  c #FFB0AD",
"B  c #FFB3B2",
"V  c #FFB4BB",
"C  c #FEBBBB",
"Z  c #FDC2BE",
"A  c #FFC5C2",
"S  c #FFC7CA",
"D  c #FFCCCA",
"F  c #FFD1D3",
"G  c #FFD6D9",
"H  c #FFDDDA",
"J  c #FFE0DE",
"K  c #FFE3E5",
"L  c #FFE5EA",
"P  c #FFEAEC",
"I  c #FFF3EE",
"U  c #FFEFF2",
"Y  c #FFF4F4",
"T  c #FEFAF5",
"R  c #FFF6F9",
"E  c #F7FEFE",
"W  c #FEFDF9",
"Q  c #FFFCF9",
"!  c #FCFEF9",
"~  c #FDFEF9",
"^  c #FFFEF9",
"/  c #FEFFF9",
"(  c #FCFCFA",
")  c #FDFCFA",
"_  c #FDFDFB",
"`  c #FFFCFA",
"'  c #FEFDFB",
"]  c #FFFDFB",
"[  c #FCFFFA",
"{  c #FDFFFA",
"}  c #FCFEFB",
"|  c #FEFFFA",
" . c #FFFFFA",
".. c #FFFEFB",
"X. c #FEFFFB",
"o. c #FFFFFB",
"O. c #FDFCF8",
"+. c #FAFBFD",
"@. c #FAF9FE",
"#. c #FEF9FD",
"$. c #FCFAFD",
"%. c #FFFAFD",
"&. c #FFFBFD",
"*. c #FFF9FE",
"=. c #FCFAFF",
"-. c #FFFAFE",
";. c #FFFAFF",
":. c #FFFBFF",
">. c #F8FEFC",
",. c #FAFFFC",
"<. c #FBFFFC",
"1. c #FBFFFD",
"2. c #F9FDFF",
"3. c #FAFDFF",
"4. c #F8FFFF",
"5. c #F9FFFF",
"6. c #FAFFFE",
"7. c #FBFFFE",
"8. c #FBFEFF",
"9. c #FBFFFF",
"0. c #FDFDFD",
"q. c #FFFDFC",
"w. c #FEFCFD",
"e. c #FFFDFD",
"r. c #FDFFFC",
"t. c #FCFEFD",
"y. c #FCFFFD",
"u. c #FEFEFC",
"i. c #FFFEFC",
"p. c #FFFEFD",
"a. c #FEFFFD",
"s. c #FFFFFD",
"d. c #FCFCFE",
"f. c #FDFCFF",
"g. c #FCFDFF",
"h. c #FDFDFF",
"j. c #FFFDFE",
"k. c #FEFCFF",
"l. c #FFFCFF",
"z. c #FEFDFF",
"x. c #FFFDFF",
"c. c #FDFFFE",
"v. c #FDFEFF",
"b. c #FCFFFF",
"n. c #FEFEFE",
"m. c #FFFEFF",
"M. c #FEFFFF",
"N. c white",
"B. c #FEFDFD",
/* pixels */
"! ! [ Q m.m.m.m.m.m.[ [ m.m.m.m.m.m.m.[ [ ! [ [ ",
"[ [ m.m.m.7.m.$.( [ T T Y R Q Q m.m.m.[ m.[ [ [ ",
"m.m.m.m.m.m.m.[ [ Y I P P P P Y Q [ m.m.m.m.m.m.",
"m.@.m.m.m.m.Y Y I m i 5 $ 4 9 g J [ m.7.m.m.m.m.",
"m.m.m.m.m.Q Q P w , . > 8 % * % 3 Y Q m.7.4.m.[ ",
"m.m.m.m.m.Q Y p O y x K L K B h m Y Q m.4.7.m.[ ",
"m.m.m.m.Q Y P $ - H P Y R R R Y T T m.m.7.7.m.m.",
"m.m.m.[ [ Y L % @ D Y m.m.[ m.m.[ [ m.7.m.m.m.m.",
"m.m.m.[ [ Q P 5 O A P m.[ [ [ [ 7.m.m.m.m.7.7.7.",
"m.m.m.m.m.[ U l o < F U Y Y T [ m.m.$.m.m.7.7.7.",
"T m.m.m.m.m.m.Y 6   X q S P R $.m.$.m.m.m.m.( m.",
"[ m.m.m.m.7.4.Q P a 1 X > 0 C G R $.m.[ m.m.m.m.",
"m.@.7.m.[ m.m.$.Q Y P j 5 * X t F Y T [ m.m.m.m.",
"m.m.m.m.[ Q m.m.m.m.$.Y P N 2 X r P T ! m.m.m.m.",
"m.m.$.m.m.m.[ m.m.m.Q Q T I S 7 > B I [ m.m.m.$.",
"[ m.m.m.m.m.[ m.m.m.m.m.,.T P u ; b I T m.m.m.$.",
"[ m.m.m.m.m.4.7.m.m.m.m.[ T K e > V I T [ m.m.$.",
"[ m.m.m.m.m.Q Y Y Y R Y I P A ; & L T T [ m.$.m.",
"[ [ m.m.[ Y Z 9 k z B B c s + , j Y T [ m.$.m.m.",
"[ m.m.m.[ T C 4 * = - # * : = c P T [ ,.m.$.m.m.",
"7.m.m.m.m.Q T I Z v d f M n U Y [ [ m.m.m.m.m.7.",
"4.m.m.Q m.m.m.[ T T Y Y Y R m.m.7.>.m.m.m.m.m.7.",
"m.m.m.m.m.m.m.m.m.[ Q Y T [ m.m.m.m.m.@.m.m.7.m.",
"m.m.m.m.m.m.m.m.m.7.m.m.[ [ [ m.m.m.$.m.m.m.m.m."
};
