/* XPM */
static char *_5ffabbf7051433fa1cb7b475e23fd63WjdV0reuO20Z7C83[] = {
/* columns rows colors chars-per-pixel */
"24 24 243 2 ",
"   c #67951B",
".  c #688C28",
"X  c #698F28",
"o  c #6A8F28",
"O  c #6F8D2D",
"+  c #699327",
"@  c #6D922B",
"#  c #6B942A",
"$  c #6F922C",
"%  c #70902F",
"&  c #6C8E30",
"*  c #6B8F35",
"=  c #6C8B3B",
"-  c #698F3A",
";  c #6F8C38",
":  c #738E31",
">  c #748D32",
",  c #728E37",
"<  c #718E3A",
"1  c #708F3F",
"2  c #6D9131",
"3  c #6D9036",
"4  c #6F9236",
"5  c #6F933B",
"6  c #719032",
"7  c #719033",
"8  c #769132",
"9  c #709337",
"0  c #74903B",
"q  c #7CA431",
"w  c #7FAD33",
"e  c #7CA13A",
"r  c #6F8749",
"t  c #718746",
"y  c #728943",
"u  c #718A46",
"i  c #738F45",
"p  c #718C47",
"a  c #72884A",
"s  c #758256",
"d  c #778456",
"f  c #8DB24B",
"g  c #90BA4A",
"h  c #8DAA50",
"j  c #8DAE53",
"k  c #92AA54",
"l  c #91AF59",
"z  c #8FB153",
"x  c #93B151",
"c  c #90B156",
"v  c #95B457",
"b  c #92AC65",
"n  c #94A56F",
"m  c #93A86D",
"M  c #95A276",
"N  c #96A675",
"B  c #98A671",
"V  c #9BA775",
"C  c #97A874",
"Z  c #9AA877",
"A  c #99A47A",
"S  c #B1CD79",
"D  c #B2CD7E",
"F  c #B4CF7E",
"G  c #ADD076",
"H  c #B0D47A",
"J  c #B0D07D",
"K  c #B0D27E",
"L  c #B1CD80",
"P  c #B2CC82",
"I  c #B4C88B",
"U  c #B6CC8B",
"Y  c #AFD282",
"T  c #B9C69B",
"R  c #C4D8A7",
"E  c #C1D7A9",
"W  c #C3D9AB",
"Q  c #C5D9A8",
"!  c #C6DAA9",
"~  c #C7D8AC",
"^  c #C7D5B1",
"/  c #CBD7B1",
"(  c #CAD9B2",
")  c #CCD5B8",
"_  c #D4EBB3",
"`  c #D7E9B7",
"'  c #D8E8B7",
"]  c #D4E0B8",
"[  c #D6E7BA",
"{  c #DAE7BB",
"}  c #D8E7BC",
"|  c #DAE7BC",
" . c #D9E5BF",
".. c #D8E7BE",
"X. c #DAE6BE",
"o. c #D5E9B8",
"O. c #D4EABB",
"+. c #D7E8BC",
"@. c #D4EABC",
"#. c #D6DFC0",
"$. c #D8DEC2",
"%. c #D7E7C3",
"&. c #DBE7C3",
"*. c #D8EAC0",
"=. c #DAE9C2",
"-. c #DEE4C8",
";. c #EFFFC7",
":. c #ECF6D4",
">. c #ECF5DA",
",. c #EBF3DC",
"<. c #EEF6DF",
"1. c #F3FFD1",
"2. c #F5FFD1",
"3. c #F2FFD7",
"4. c #F7FFD4",
"5. c #F5FFD8",
"6. c #F7FFD8",
"7. c #F5FFDA",
"8. c #F7FFDE",
"9. c #EBF2E0",
"0. c #F7FFE1",
"q. c #F6FFE6",
"w. c #F6FFE7",
"e. c #FBFFE3",
"r. c #FCFFE1",
"t. c #FCFFE3",
"y. c #F8FFE4",
"u. c #F9FFE6",
"i. c #FEFFE4",
"p. c #FFFFE4",
"a. c #FDFFE7",
"s. c #F7FFEA",
"d. c #F7FFEC",
"f. c #F9FFEA",
"g. c #FCFFEA",
"h. c #FEFFEB",
"j. c #F9FFEC",
"k. c #FBFFEE",
"l. c #FCFFEC",
"z. c #FEFFEC",
"x. c #FEFFED",
"c. c #FFFFED",
"v. c #FCFFEE",
"b. c #FCFFEF",
"n. c #FEFFEF",
"m. c #F7FFF1",
"M. c #F7FDF3",
"N. c #F6FFF3",
"B. c #F8FFF1",
"V. c #F9FFF1",
"C. c #FBFFF0",
"Z. c #FBFFF1",
"A. c #FDFFF0",
"S. c #FCFFF1",
"D. c #FEFFF1",
"F. c #FDFFF2",
"G. c #FCFEF3",
"H. c #FCFFF3",
"J. c #FDFFF3",
"K. c #FEFFF3",
"L. c #FAFDF4",
"P. c #F9FFF4",
"I. c #FBFEF5",
"U. c #FBFFF5",
"Y. c #F9FFF6",
"T. c #FAFFF6",
"R. c #FBFEF7",
"E. c #FCFFF4",
"W. c #FDFFF5",
"Q. c #FEFFF4",
"!. c #FCFDF7",
"~. c #FCFFF6",
"^. c #FDFFF7",
"/. c #FEFFF6",
"(. c #FFFFF6",
"). c #FEFFF7",
"_. c #FAFAF8",
"`. c #FBFBFB",
"'. c #FBFDF8",
"]. c #F9FFF8",
"[. c #FBFFF8",
"{. c #FBFFF9",
"}. c #F9FFFB",
"|. c #FBFFFA",
" X c #FCFDF8",
".X c #FDFEF8",
"XX c #FCFFF8",
"oX c #FCFEF9",
"OX c #FDFEF9",
"+X c #FDFFF9",
"@X c #FEFFF8",
"#X c #FFFFF8",
"$X c #FFFEF9",
"%X c #FEFFF9",
"&X c #FFFDFA",
"*X c #FCFFFA",
"=X c #FDFFFA",
"-X c #FCFFFB",
";X c #FFFEFA",
":X c #FEFFFA",
">X c #FFFFFA",
",X c #FFFEFB",
"<X c #FEFFFB",
"1X c #FFFFFB",
"2X c #FAFAFF",
"3X c #FFF9FC",
"4X c #FCFAFF",
"5X c #FFFBFE",
"6X c #FEFAFF",
"7X c #FFFBFF",
"8X c #F9FDFC",
"9X c #FBFFFC",
"0X c #FBFCFF",
"qX c #FBFFFE",
"wX c #FAFFFF",
"eX c #FBFFFF",
"rX c gray99",
"tX c #FDFDFD",
"yX c #FFFDFC",
"uX c #FEFCFD",
"iX c #FDFFFC",
"pX c #FCFEFD",
"aX c #FCFFFD",
"sX c #FEFEFC",
"dX c #FFFEFC",
"fX c #FFFEFD",
"gX c #FEFFFD",
"hX c #FFFFFD",
"jX c #FCFCFE",
"kX c #FDFCFF",
"lX c #FCFDFF",
"zX c #FDFDFF",
"xX c #FFFCFF",
"cX c #FEFDFF",
"vX c #FFFDFF",
"bX c #FDFFFE",
"nX c #FDFEFF",
"mX c #FCFFFF",
"MX c #FEFEFE",
"NX c #FEFEFF",
"BX c #FFFEFF",
"VX c #FEFFFF",
"CX c white",
/* pixels */
"*X*XaXaXaXaX5XaXaX}.L.*XaXaXaX}.aXaXaXaXaXaXaXaX",
"aXaXaXaXaX*XaXaX*XB.G.v.Q.*XQ.Q.Q.*XaXaXaXaXaXaX",
"aXaXaXaX*X*XaXG.u.8.t.t.i.i.e.e.i.v.*XaXaXaXaX*X",
"aXaXaXaXaXaX*X,.m b n Z V B C N A -.Q.aXaXaX*X*X",
"aXaXaXaXaXaXQ.=.9 o p r t u p a s $.*XaXaXaX*X*X",
"aXaXaXaXaXaX*X[ o g ;.6.4.2.1.6.i.v.*XaXaXaXaX*X",
"aX*X*X*XaX*X*X..& z 0.B.G.G.G.G.Q.*XaXaXaXaXaXaX",
"aX*X*X*X*X*XQ...7 l s.aXaXaXaXaXaXaXaXaXaXaXaXaX",
"*XaXaXaXaXQ.v.' % c q.aXaXaXaXaXaXaXaXaXaXaXaXaX",
"*XaXaXaXaX}.G.` @ f 6.j.v.v.v.j.Q.*XaXaXaXaXaXaX",
"*XaXaXaXaXeXL.O.+ w G L F S D U / v.*XaXaXaX*X*X",
"aXaXaXaXaXeX}.+.#   9 = 0 , < y M v.*XaXaXaXaX*X",
"aXaXaXaXaX}.Q.+.2 e _ %...] &.&.:.v.*XaXaXaX*X*X",
"aXaXaXaXaXQ.Q...7 j u.*XQ.Q.Q.G.G.Q.aXaXaXaXaX*X",
"aXaXaXaX*XQ.Q.{ O v q.eXaX*X*X*X*XaXaXaXaXaXaXaX",
"aXaXaXaX*XQ.Q...8 h j.aXaXaX*XaXaXaXaXaXaXaX`.aX",
"aXaX*X*X*X*XQ...> k f.eXaXaXaXaXaXeXaXeXaXaX_.*X",
"aXaX*X*XaXaXQ...: x 3.d.f.g.g.v.G.L.*X*XaXaXaXaX",
"aXaXaXaXaXaXL.O.$ q H Y K K L I T >.B.L.aXaXaX5X",
"aXaXaXaXaXaXN.=.< o 9 - * 3 1 u d #.v.*XaX2X5XaX",
"aXaXaXaXaXaX*X9.( Q E Q Q Q ~ / ) <.G.*XaXaXaXaX",
"aXaXaXaXaXaXaXQ.Q.G.B.G.G.G.G.G.G.B.*XaXaXaXaXaX",
"aXaXaXaXaXaX*XaXaXaX*X*X*X*X*XaXaXaXaXaXaXaXaX*X",
"aXaXaXaXaX*X*XaXaXaXaXaX5XaX5XaX5XaXaXaXaX*X*X*X"
};
