/* XPM */
static char *_f3ca86c1b77438ed7a28e607709c192oAxXoLqijFGFgwlj[] = {
/* columns rows colors chars-per-pixel */
"24 24 158 2 ",
"   c #193481",
".  c #1E388F",
"X  c #1A3697",
"o  c #1A3994",
"O  c #12329F",
"+  c #1B379C",
"@  c #16399B",
"#  c #1D3999",
"$  c #1435A3",
"%  c #1936A4",
"&  c #153AA7",
"*  c #183BA3",
"=  c #1536AC",
"-  c #1937A9",
";  c #1539AA",
":  c #0E34B1",
">  c #0F33BA",
",  c #1335B3",
"<  c #1338B3",
"1  c #1435BB",
"2  c #1539BB",
"3  c #354FA6",
"4  c #3552A3",
"5  c #3453AB",
"6  c #3A52A8",
"7  c #344EBC",
"8  c #3451B3",
"9  c #546AA3",
"0  c #556BAC",
"q  c #586DAE",
"w  c #4A65BE",
"e  c #5369B4",
"r  c #556BBA",
"t  c #767EAD",
"y  c #0E33C0",
"u  c #1439C6",
"i  c #103ACA",
"p  c #2C4ECA",
"a  c #304FCC",
"s  c #2E52C5",
"d  c #2E54CA",
"f  c #3051C5",
"g  c #2A55D8",
"h  c #204DE3",
"j  c #3D6AFF",
"k  c #4468D6",
"l  c #4B6AD6",
"z  c #4467DB",
"x  c #456ADA",
"c  c #4968DD",
"v  c #4C6AE6",
"b  c #426AEE",
"n  c #6A84CB",
"m  c #6881D3",
"M  c #6582DE",
"N  c #5A81F6",
"B  c #5883FF",
"V  c #6181EC",
"C  c #6E98FF",
"Z  c #7D97F6",
"A  c #779AF6",
"S  c #7D9AF6",
"D  c #729AFF",
"F  c #7B99FC",
"G  c #8E99D1",
"H  c #8597D9",
"J  c #849BDE",
"K  c #899BDE",
"L  c #ADB2DA",
"P  c #8999E4",
"I  c #869BEA",
"U  c #889BE8",
"Y  c #809CFF",
"T  c #9EB3E2",
"R  c #9DB2EC",
"E  c #8EB3FF",
"W  c #9EB1F6",
"Q  c #95B2FF",
"!  c #9BB4FF",
"~  c #A9AEE6",
"^  c #A2B5EC",
"/  c #A3B4F3",
"(  c #ABCBFF",
")  c #B2CCFF",
"_  c #BBCEFF",
"`  c #B5D0FF",
"'  c #BED1FF",
"]  c #C6DFFF",
"[  c #C9DFFF",
"{  c #CDE4FF",
"}  c #D3E6FF",
"|  c #DAE5FF",
" . c #D5E8FF",
".. c #DCEBFF",
"X. c #E4FDFF",
"o. c #ECFDFF",
"O. c #FEFDF7",
"+. c #F4FDFF",
"@. c #FCFEF9",
"#. c #FCFCFA",
"$. c #FFFDFA",
"%. c #FCFEFB",
"&. c #FCFFFB",
"*. c #FFFFFA",
"=. c #FFFEFB",
"-. c #FEFFFB",
";. c #FFFFFB",
":. c #FBFBFD",
">. c #F8FBFF",
",. c #F9FBFF",
"<. c #FAFAFF",
"1. c #FEF8FF",
"2. c #FCFBFF",
"3. c #FEFAFF",
"4. c #FFFAFF",
"5. c #FFFBFF",
"6. c #FBFDFC",
"7. c #FBFFFC",
"8. c #F9FDFE",
"9. c #F9FCFF",
"0. c #F8FDFF",
"q. c #F9FDFF",
"w. c #FAFDFF",
"e. c #FBFDFF",
"r. c #F8FEFF",
"t. c #F9FEFF",
"y. c #F8FFFF",
"u. c #F9FFFF",
"i. c #FAFEFF",
"p. c #FBFEFF",
"a. c #FAFFFF",
"s. c #FBFFFF",
"d. c gray99",
"f. c #FDFDFD",
"g. c #FFFDFC",
"h. c #FFFCFD",
"j. c #FCFFFD",
"k. c #FEFEFC",
"l. c #FFFEFD",
"z. c #FEFFFD",
"x. c #FFFFFD",
"c. c #FCFCFE",
"v. c #FCFCFF",
"b. c #FCFDFF",
"n. c #FDFDFF",
"m. c #FFFDFE",
"M. c #FEFCFF",
"N. c #FFFCFF",
"B. c #FEFDFF",
"V. c #FFFDFF",
"C. c #FDFEFF",
"Z. c #FCFFFF",
"A. c #FEFEFE",
"S. c #FEFEFF",
"D. c #FFFEFF",
"F. c #FEFFFF",
"G. c white",
"H. c #FDFEFE",
/* pixels */
"j.@.&.@.j.j.j.j.j.j.j.j.j.4.&.&.4.j.9.9.j.j.@.@.",
"9.9.9.9.9.j.4.j.j.j.9.9.j.j.j.j.j.j.9.9.j.j.+.9.",
"9.9.+.+.9.j.j.j.j.+.+.+.+.+.9.j.j.&.j.9.+.+.9.9.",
"<.L q R +.&.j.j.j.+.} 0 9 ..9.j.&.&.j.+.^ q t <.",
"4.~ % l +.&.j.j.&.9.Z < ; Q 9.j.9.j.j.+.S + G <.",
"4.| 1 2 } 9.9.j.j.+.c h i V +.j.9.j.j.+.= = | 9.",
"j.+.p 2 } +.9.j.j.| = j h ; | 9.9.9.j.| , d o.9.",
"j.+.V = W +.+.9.+.^ $ C B $ ' +.9.9.>.P , D +.j.",
"j.+.! $ r o.9.9.+.K X ( E @ n o.9.9.+.I & A +.j.",
"j.+.X.5 # } >.9.o.  6 X.X.5 4 o.9.9.o.. @ X.+.@.",
"O.9.o.4 % ) <.9.{ o r o.o.e # ] 9.+.} # 4 o.9.j.",
"&.9.+.J = Y >.+.F * H +.+./ O Y +.+.F $ J +.9.j.",
"j.j.9._ , v o.+.s = +.4.j.| = z o.o.v , _ >.j.j.",
"j.j.j.+.a ,  .{ < s o.j.4.+.f < } o.2 : o.9.j.j.",
"j.j.j.o.z 2 ) ! = F +.j.j.>.F & ! [ > d +.j.j.j.",
"j.j.j.+.F = Q S + _ +.9.j.+.) @ M F < F +.j.j.j.",
"j.j.9.+.` $ N k 3 o.+.j.j.+.o.5 x D $ _ +.j.j.&.",
"j.<.j.+.o.8 b < U +.9.j.&.9.o.n : g 8 o.9.j.j.&.",
"&.&.j.9.+.m u > K >.9.j.j.9.9./ 2 y w o.9.j.j.j.",
"&.&.j.j.+./ = - +.<.j.j.j.j.j.+.7 $ K +.>.j.j.j.",
"&.j.j.j.9.| R ^ 9.j.j.j.j.j.j.9.] T ..j.j.j.4.j.",
"j.j.j.j.j.9.+.+.<.j.j.d.j.j.j.9.+.+.9.4.j.j.j.&.",
"j.j.j.:.j.j.j.j.j.O.j.j.&.j.j.j.j.9.j.j.4.j.&.O.",
"j.j.j.j.j.j.j.j.&.&.j.j.j.&.j.j.j.j.j.4.4.j.&.O."
};
