/* XPM */
static char *fce0213a0adb43a7f61096ad9f7a48deMsf9dQBrZAcTOcna[] = {
/* columns rows colors chars-per-pixel */
"24 24 57 1 ",
"  c black",
". c #010101",
"X c #020202",
"o c gray1",
"O c #040404",
"+ c gray2",
"@ c #060606",
"# c gray12",
"$ c gray13",
"% c #222222",
"& c #232323",
"* c gray14",
"= c gray24",
"- c #3F3F3F",
"; c gray25",
": c #414141",
"> c #444444",
", c gray35",
"< c #5D5D5D",
"1 c gray37",
"2 c #5F5F5F",
"3 c #606060",
"4 c gray38",
"5 c #626262",
"6 c #646464",
"7 c gray49",
"8 c #7E7E7E",
"9 c gray50",
"0 c #808080",
"q c #818181",
"w c gray51",
"e c #838383",
"r c gray60",
"t c #9D9D9D",
"y c #9F9F9F",
"u c gray64",
"i c #BBBBBB",
"p c #BCBCBC",
"a c gray",
"s c gray75",
"d c #C1C1C1",
"f c gray76",
"g c #C3C3C3",
"h c gainsboro",
"j c #DDDDDD",
"k c gray87",
"l c #DFDFDF",
"z c gray88",
"x c #E1E1E1",
"c c #F8F8F8",
"v c #F9F9F9",
"b c gray98",
"n c #FBFBFB",
"m c gray99",
"M c #FDFDFD",
"N c #FEFEFE",
"B c white",
/* pixels */
"BBBBBBBBBBBBBBBBBBBBBBBB",
"BBBBBBBBBBBnBBBBBBBBBBBB",
"BBBBBBBBBBBBBBBBBBBBBBBB",
"BBBBBu-1BBBBBBBBl:5BBBBB",
"BBBBB,@ qBBBnBBBl :BBBBB",
"BBBBB5   zBBBBBBz :BnBBB",
"BBBBB1 q qnBBBBBz >BBBBn",
"BBBBB5 l$ qBBBBBl -BBBBB",
"BBBBB1 ld  lBBBBl -BBBBB",
"BBBBB5@lB7 7BBBBl -BBBBB",
"BBBBB5 dBB# tBnBl -BBBBB",
"BBBBB5 sBB7 $lBnl -BBBBB",
"BBBBB5@dBBB5 7BBl -BBBBB",
"BBBBB1 sBBBl$ iBl -BBBBB",
"BBBBB5 dBBBBq $ll -BBBBB",
"BBBBB5 sBBBBB: 7l -BBBBB",
"BBBBB1 sBBBBBl$ z :BBBBB",
"BBBBB1 dBBBBBB7 # :BBBBB",
"BnBBB6 sBBBBBBn*  :BBBBB",
"BBBBB5 dBBBBBBBl$ :BnBBB",
"BBBBBstlBBBBBBBBsrdBBBnB",
"BBBBBBBBBBBBBBBBBBnBBBBB",
"BBBBBBBBBBBBnBBBBBBBBBBB",
"BBBBBBBBBBBBBBBBBBBBBBBB"
};
