/* XPM */
static char *_848fb323d7947fdb1896dd5ec326e26hfSmLoQHTDeJLLns[] = {
/* columns rows colors chars-per-pixel */
"24 24 51 1 ",
"  c #FF1A1C",
". c #FF1B1C",
"X c #FF1A1D",
"o c #FF3618",
"O c #FF391C",
"+ c #FF2323",
"@ c #FF3838",
"# c #FF3938",
"$ c #FF3B3C",
"% c #FE3D3E",
"& c #FF4F13",
"* c #FF5114",
"= c #FF6C12",
"- c #FE6D12",
"; c #FE4646",
": c #FD5353",
"> c #FF5253",
", c #FE5454",
"< c #FF5555",
"1 c #FE5957",
"2 c #FF7D7D",
"3 c #FF7F7E",
"4 c #FE860C",
"5 c #FF8E14",
"6 c #FEBC06",
"7 c #FEBC27",
"8 c #FFAC32",
"9 c #FFD703",
"0 c #FFF100",
"q c #FDF200",
"w c #FEF200",
"e c #FFF301",
"r c #FFF102",
"t c #FFA768",
"y c #FDBB7E",
"u c #FF8582",
"i c #FF9796",
"p c #FFAFAE",
"a c #FFAFB0",
"s c #FEC6C5",
"d c #FFC7C6",
"f c #FFE3E0",
"g c #FEE2E1",
"h c #FFE3E2",
"j c #FFE2E4",
"k c #FFFFFD",
"l c #FDFFFE",
"z c #FEFEFE",
"x c #FFFEFF",
"c c #FEFFFF",
"v c white",
/* pixels */
"vvvvvvvvvvvvvvvvvvvvvvvv",
"vvvvvvvvvvvvvvvvvvvvvvvv",
"vvvvvvvvvvvvvvvvvvvvvvvv",
"vvvvvvvvvvvvvvvvvvvvvvvv",
"vvvvvvvvvvvvvvvvvvvvvvvv",
"vvvvvvvvvvvvvvvvvvvvvvvv",
"vvvvvvvvvvvvvvvvvvvvvvvv",
"vvvvvvvvvvvvvvvvvvvvvvvv",
"vvvvvvvvvvvjsvvvvvvvvvvv",
"vvvvvvvvvvv##vvvvvvvvvvv",
"vvvvvvvh#sv##vv#vvvvvvvv",
"vvvvvvvh.#h##s%.svvvvvvv",
"vvvvvvvv,.>.O...3vvvvvvv",
"vvvvvvvv;.oww*..1vvvvvvv",
"vvvvvvvvo69wwww-$vvvvvvv",
"vvvvvvva-wwwwww6;vvvvvvv",
"vvvvvvvp*wwwwww6,vvvvvvv",
"vvvvvvvv+9wwwww4uvvvvvvv",
"vvvvvvvv3&9wwww5hvvvvvvv",
"vvvvvvvvvi59www>vvvvvvvv",
"vvvvvvvvvvvy87tvvvvvvvvv",
"vvvvvvvvvvvvvvvvvvvvvvvv",
"vvvvvvvvvvvvvvvvvvvvvvvv",
"vvvvvvvvvvvvvvvvvvvvvvvv"
};
