/* XPM */
static char *_7bba23979cc405efd757d72c62048dbg4bzhTT0wFCWmZ7F[] = {
/* columns rows colors chars-per-pixel */
"24 24 65 1 ",
"  c #5A3A00",
". c #5B3B00",
"X c #5B3B02",
"o c #5A3C00",
"O c #5C3C01",
"+ c #634000",
"@ c #634101",
"# c #634200",
"$ c #644101",
"% c #644002",
"& c #6B4600",
"* c #6C4600",
"= c #6D4700",
"- c #6D4601",
"; c #6E4600",
": c #754B00",
"> c #774B02",
", c #764C00",
"< c #764D00",
"1 c #774D01",
"2 c #764C02",
"3 c #7D5000",
"4 c #7E5100",
"5 c #7D5A00",
"6 c #7D5B01",
"7 c #855501",
"8 c #855701",
"9 c #865700",
"0 c #865601",
"q c #865602",
"w c #885601",
"e c #8E5B00",
"r c #8D5B02",
"t c #8B5C00",
"y c #8D5C00",
"u c #8E5D01",
"i c #8E5C03",
"p c #976100",
"a c #986000",
"s c #986200",
"d c #9D6600",
"f c #9D6700",
"g c #9F6600",
"h c #9E6700",
"j c #9E6702",
"k c #916F01",
"l c #9D6800",
"z c #9E6800",
"x c #9F6900",
"c c #9F6801",
"v c #9D6802",
"b c #9F6803",
"n c #A06700",
"m c #A16801",
"M c #A57D01",
"N c #AB7900",
"B c #B88A00",
"V c #C39A00",
"C c #CEAD00",
"Z c #CFAE01",
"A c #D4BA01",
"S c #E8CF00",
"D c #EADC00",
"F c #F3E200",
"G c #FEF200",
/* pixels */
"nhhh%0hhhh0.0hhh0,hhhhhh",
"zzhh@0hhhhy.0hhz0,hhhhhh",
"nhhz,,hhhny.>hhh04hhhhhh",
"hhmh,&hhzhy.,hzhy4hhhhhh",
"hhhh0%hhzhp.=hzhr4hhhhhh",
"hhhz0oshhhh.%hhhy4hzzhhh",
"zhhhy.shhznO@zhh0,hhhhhh",
"hhzzy.0zhhz.=hhh4>mhhhhh",
"hhhhp.wzhhh.=hhh4=hzhhnh",
"hhhhzo0hhhh.=hhz45CBhhhh",
"hnhhh%,hzhh.=hhhMGGGVhhh",
"hhhhh@,hhhn%=hhhAGGGShzh",
"hhhhh==hhhh.4zhzCGGGFhhh",
"hhhhh==hhhh.4zhzNDGGBhhh",
"zhhhh=%hhhh.yhhhh5khhhhh",
"hhhhz=@hhhh.zzhhh,%zhhhh",
"hhhhh,@hhhn.phhzh0.zzhhz",
"hhhhh,=hhhp.shhhzy.phhhh",
"hhhhh,=hhhp.phhhhy.phmhh",
"hhnhh,=hhzp.phhhh0.phhhh",
"hhhhh,=hhhp.rhhhh0.yhhhz",
"hhhhh,=hhht.rhhhh0.rhhhh",
"hhnhh,=hhhy.tnhhh0.yzhhz",
"hhhhh,,hhhr.yhhhh0.yhhhz"
};
