/* XPM */
static char *_2ffafe2c2c44eb2e2be4b11e02453680ej00aczRCVnmD1e[] = {
/* columns rows colors chars-per-pixel */
"24 24 71 1 ",
"  c #FE1A19",
". c #FF1A1A",
"X c #FE1A1B",
"o c #FD1B1C",
"O c #FF1A1C",
"+ c #FF1B1C",
"@ c #FF1A1D",
"# c #FF1B1E",
"$ c #FF1C1D",
"% c #FE3517",
"& c #FF3618",
"* c #FF2221",
"= c #FF2323",
"- c #FE2725",
"; c #FF2B2A",
": c #FF2D2C",
"> c #FE3030",
", c #FF3131",
"< c #FF3838",
"1 c #FF3938",
"2 c #FF393A",
"3 c #FF3B3C",
"4 c #FF5114",
"5 c #FF6C12",
"6 c #FE4646",
"7 c #FF5E5C",
"8 c #FE6263",
"9 c #FF7072",
"0 c #FF7F7E",
"q c #FE860B",
"w c #FE860C",
"e c #FDA209",
"r c #FFA10B",
"t c #FEBC06",
"y c #FFB31F",
"u c #FEAF36",
"i c #FFD703",
"p c #FCF100",
"a c #FDF100",
"s c #FFF100",
"d c #FDF200",
"f c #FEF200",
"g c #FFF301",
"h c #FEF102",
"j c #FDF202",
"k c #FFA147",
"l c #FFBE46",
"z c #FF8584",
"x c #FF8D8C",
"c c #FF8D8D",
"v c #FF9798",
"b c #FFB294",
"n c #FFA8A6",
"m c #FEA8A7",
"M c #FFAAA7",
"N c #FFA9A8",
"B c #FFAAA9",
"V c #FDC7C5",
"C c #FEC6C5",
"Z c #FEC6C7",
"A c #FDE3E2",
"S c #FFE3E2",
"D c #FFE2E4",
"F c #FFFFFD",
"G c #FFFDFE",
"H c #FDFFFE",
"J c #FEFEFE",
"K c #FEFEFF",
"L c #FFFEFF",
"P c #FEFFFF",
"I c white",
/* pixels */
"IIIIIIIIIIIIIIIIIIIIIIII",
"IIIIIIIIIIIIIIIIIIIIIIII",
"IIIIIIIIIIIIIIIIIIIIIIII",
"IIIIIIIIIIIIIIIIIIIIIIII",
"IIIIIIIIIIIIIIIIIIIIIIII",
"IIIIIIIIIIICMDIIIIIIIIII",
"IIIIIIIIIIS.+NIIIIIIIIII",
"IIIIISMSIIN++CIICMIIIIII",
"IIIIIx+1SIN++CII1.SIIIII",
"IIIIIC++1SN++NIv++NIIIII",
"IIIIII1+.xx++8+$*;NIIIII",
"IIIIII9$++*45+++++7IIIII",
"IIIIII0++.rffr++++:IIIII",
"IIIIII-+%5fffftw&+*IIIII",
"IIIIIC+tffffffffi5+IIIII",
"IIIII0+ffffffffffr+IIIII",
"IIIII8&ffffffffffr-IIIII",
"IIIIIz.tfffffffffw3IIIII",
"IIIIIC+5fffffffff56IIIII",
"IIIIII>&iffffffff&xIIIII",
"IIIIIIS;4ffffffff+SIIIII",
"IIIIIIIS>qffffffy1IIIIII",
"IIIIIIIIICuffffi4CIIIIII",
"IIIIIIIIIIIbkllNSIIIIIII"
};
