/* XPM */
static char *_6f3876f937342d18507d4525508a743Q1Z9OKecXJ12RanC[] = {
/* columns rows colors chars-per-pixel */
"24 24 40 1 ",
"  c #7E7E7E",
". c gray50",
"X c #808080",
"o c gray51",
"O c #848484",
"+ c gray53",
"@ c #8B8B8B",
"# c #8E8E8E",
"$ c gray56",
"% c #979797",
"& c #989898",
"* c #9A9A9A",
"= c #9B9B9B",
"- c gray62",
"; c #9F9F9F",
": c #A2A2A2",
"> c #A7A7A7",
", c #AEAEAE",
"< c #AFAFAF",
"1 c #B6B6B6",
"2 c #B7B7B7",
"3 c gray72",
"4 c gray73",
"5 c gray",
"6 c gray75",
"7 c #C0C0C0",
"8 c #C6C6C6",
"9 c gray78",
"0 c #CACACA",
"q c #CDCDCD",
"w c gray81",
"e c #D0D0D0",
"r c #D7D7D7",
"t c #DFDFDF",
"y c #E7E7E7",
"u c #EFEFEF",
"i c gray97",
"p c #F8F8F8",
"a c #FEFEFE",
"s c white",
/* pixels */
"ssy666666666666666668pss",
"ssu666676662222266666iss",
"ssi6<$+++X........+>6sss",
"ssst>..............$usss",
"ssssu<*-@..$X......0ssss",
"ssssssw6-..6>..6eussssss",
"ssssssr6-..2<..28sssssss",
"ssssssr6-..3<..26issssss",
"ssssssr6%..<>..36pssssss",
"sssssst6%..>>..26yssssss",
"sssssst6%..>>..>6yssssss",
"sssssst6*..->..%6rssssss",
"ssssssy6$..->..%6wssssss",
"ssssssu6$..->..$6wssssss",
"ssssssu6$..%<...28ssssss",
"sssssss6$..%6+..>8ssssss",
"sssssss6$..$6+..%8ssssss",
"sssssss8%..$6%..$8ssssss",
"ssssssuw%..+2:...2ssssss",
"ssssst..+...X.....$sssss",
"sssir3.............ussss",
"sss666><<<<<>>*$%%>rssss",
"ssu66666666667666668ssss",
"ssi66666666666666678ssss"
};
