/* XPM */
static char *_5e735f50c6b4ee0ac0cd1543d8551e7iDkj4b4O8wzwmBck[] = {
/* columns rows colors chars-per-pixel */
"24 24 76 1 ",
"  c #FF1919",
". c #FF1B1A",
"X c #FE1A1B",
"o c #FD1B1C",
"O c #FF1A1C",
"+ c #FF1B1C",
"@ c #FF1A1D",
"# c #FF3618",
"$ c #FF2929",
"% c #FF3131",
"& c #FE3231",
"* c #FE3837",
"= c #FF3938",
"- c #FF393A",
"; c #FF3F3E",
": c #FF5014",
"> c #FF5114",
", c #FE5417",
"< c #FF5517",
"1 c #FF6B11",
"2 c #FF6C12",
"3 c #FD4426",
"4 c #FE4646",
"5 c #FF4D4D",
"6 c #FF5153",
"7 c #FE5552",
"8 c #FE5454",
"9 c #FE5455",
"0 c #FF5D5B",
"q c #FD6363",
"w c #FF6766",
"e c #FE706F",
"r c #FD7170",
"t c #FF7170",
"y c #FF850C",
"u c #FE860C",
"i c #FF870D",
"p c #FFA10B",
"a c #FFA10D",
"s c #FEBC06",
"d c #FEBB08",
"f c #FFB520",
"g c #FFD703",
"h c #FFD801",
"j c #FDD803",
"k c #FDF100",
"l c #FFF000",
"z c #FFF100",
"x c #FDF200",
"c c #FEF200",
"v c #FFF300",
"b c #FFF301",
"n c #FEF102",
"m c #FDF202",
"M c #FF8685",
"N c #FF8486",
"B c #FE8C8C",
"V c #FF8D8D",
"C c #FE8E8D",
"Z c #FF9796",
"A c #FFA9A8",
"S c #FFB1B1",
"D c #FEC6C5",
"F c #FFE3E0",
"G c #FEE2E1",
"H c #FDE3E2",
"J c #FFE2E2",
"K c #FFE3E2",
"L c #FFE4E3",
"P c #FDE3E4",
"I c #FFFFFD",
"U c #FFFDFE",
"Y c #FEFEFE",
"T c #FFFEFF",
"R c #FEFFFF",
"E c white",
/* pixels */
"EEEEEEEEEEEEEEEEEEEEEEEE",
"EEEEEEEEEEEEEEEEEEEEEEEE",
"EEEEEEEEEEEEEEEEEEEEEEEE",
"EEEEEEEEEEL8=AEEEEEEEEEE",
"EEEEEEEEEEr++rEEEEEEEEEE",
"EEEEDDEEEE8++VEEEKVKEEEE",
"EEEL..VEEE8++VEEEe.VEEEE",
"EEEP+++VEE8++VEEK++7EEEE",
"EEEEr+.=DE8++8EZ;++*EEEE",
"EEEED+++=E=++%++++$+KEEE",
"EEEEK++++%+#<+++++++DEEE",
"EEEEE+++++dccp+.++++ZEEE",
"EEEEE++++2cccc2>++++NEEE",
"EEEE6+#ugjccccccgu++qEEE",
"EEEE+>ccccccccccccg+4EEE",
"EEEK+2ccccccccccccc+0EEE",
"EEEK+uccccccccccccc+0EEE",
"EEEK+>ccccccccccccc+NEEE",
"EEEK++scccccccccccp+SEEE",
"EEEE5+uccccccccccca.KEEE",
"EEEEA.#jcccccccccc2+EEEE",
"EEEEK5+1cccccccccc<eEEEE",
"EEEEEKw+uccccccccc+AEEEE",
"EEEEEEKV3ucccccccf+KEEEE"
};
